<svg xmlns="http://www.w3.org/2000/svg" width="32" height="32" viewBox="0 0 32 32">
  <rect x="0" y="0" width="32" height="32" rx="6" fill="#8B5CF6" />

  <g transform="translate(4 4)">
    <svg width="24" height="24" viewBox="0 0 24 24" fill="none" stroke="white" stroke-width="2" stroke-linecap="round" stroke-linejoin="round" class="lucide lucide-book-open-icon lucide-book-open">
      <path d="M12 7v14"/>
      <path d="M3 18a1 1 0 0 1-1-1V4a1 1 0 0 1 1-1h5a4 4 0 0 1 4 4 4 4 0 0 1 4-4h5a1 1 0 0 1 1 1v13a1 1 0 0 1-1 1h-6a3 3 0 0 0-3 3 3 3 0 0 0-3-3z"/>
    </svg>
  </g>

  <circle cx="27" cy="27" r="5" fill="#20B2AA" stroke="white" stroke-width="1.5"/>
  <text x="27" y="28.5" font-family="Arial, sans-serif" font-size="6" font-weight="bold" fill="white" text-anchor="middle" dominant-baseline="central">Q</text>
</svg>